# xmcd
#
# Track frame offsets: 
#        150
#        21058
#        28821
#        45827
#        55689
#        61609
#        71055
#        96266
#        131885
#        139800
#        155504
#        162607
#        166124
#        178181
#        185098
#        210562
#        217414
#        225552
#        245940
#        263305
#        268253
#        286186
#        290918
#        298036
#
# Disc length: 4318 seconds
#
# Revision: 1
# Processed by: cddbd v1.5.2PL0 Copyright (c) Steve Scherf et al.
# Submitted via: ExactAudioCopy v0.99pb3
#
DISCID=7a10dc18
DTITLE=Christian Wallumrød Ensemble - The Zoo is Far
DYEAR=2007
DGENRE=Other
TTITLE0=Nash Lontano
TTITLE1=Backwards Henry II
TTITLE2=Parkins Cembalo
TTITLE3=Fragment no. 6
TTITLE4=Psalm Kvæn, solo
TTITLE5=Fragment, no. 2
TTITLE6=Music For One Cat
TTITLE7=Arch Dance
TTITLE8=Psalm Kvæn, tutti
TTITLE9=The Zoo Is Far
TTITLE10=Fragment, no. 7
TTITLE11=Backwards Henry I
TTITLE12=Fragment, no. 3
TTITLE13=Detach A
TTITLE14=Need Elp
TTITLE15=Psalm Kvæn, trio
TTITLE16=Detach B
TTITLE17=Backwards Henry With Drums
TTITLE18=Arpa
TTITLE19=Detach C
TTITLE20=Arch Dance With Trumpet
TTITLE21=Fragment, no. 1
TTITLE22=Psalm Kvæn, quartet
TTITLE23=Allemande Es
EXTD=YEAR: 2007
EXTT0=
EXTT1=
EXTT2=
EXTT3=
EXTT4=
EXTT5=
EXTT6=
EXTT7=
EXTT8=
EXTT9=
EXTT10=
EXTT11=
EXTT12=
EXTT13=
EXTT14=
EXTT15=
EXTT16=
EXTT17=
EXTT18=
EXTT19=
EXTT20=
EXTT21=
EXTT22=
EXTT23=
PLAYORDER=
